<svg width="24" height="24" viewBox="0 0 24 24" fill="none" xmlns="http://www.w3.org/2000/svg">
<path d="M10.2209 0.442026C10.6304 0.15309 11.1196 -0.00145912 11.6208 -0.000209808C12.1221 0.0010376 12.6105 0.15802 13.0185 0.448994C13.4321 0.750866 13.7458 1.16884 13.9177 1.65184L14.9564 4.84009C15.2229 5.63922 15.6717 6.36548 16.2673 6.96151C16.8629 7.55755 17.589 8.00704 18.3883 8.27448L21.6204 9.31942C22.0982 9.49232 22.5097 9.81071 22.797 10.2297C23.0842 10.6487 23.2326 11.1472 23.2213 11.655C23.21 12.1628 23.0396 12.6542 22.734 13.06C22.4285 13.4659 22.0032 13.7657 21.5181 13.9172L18.3232 14.9575C17.5232 15.2235 16.796 15.6719 16.1991 16.2672C15.6023 16.8624 15.1522 17.5882 14.8843 18.3872L13.8341 21.6103C13.665 22.0852 13.352 22.4955 12.9386 22.7843C12.5253 23.0731 12.0321 23.2259 11.5278 23.2216C11.0235 23.2172 10.5331 23.0559 10.1248 22.7601C9.71646 22.4642 9.41058 22.0485 9.24968 21.5708L8.1878 18.3199C7.92124 17.5423 7.48162 16.8353 6.90206 16.2521C6.32249 15.6688 5.61808 15.2246 4.84186 14.9528L1.6121 13.9149C1.13715 13.7455 0.726754 13.4326 0.437881 13.0195C0.149008 12.6064 -0.00400743 12.1137 7.97978e-05 11.6097C0.00416702 11.1058 0.165153 10.6156 0.460689 10.2073C0.756224 9.79894 1.17165 9.49269 1.64928 9.33103L4.84186 8.2977C5.64599 8.03102 6.37626 7.57946 6.97394 6.97933C7.57162 6.37921 8.02002 5.64728 8.28307 4.84241L9.33332 1.61237C9.50062 1.13866 9.81198 0.729967 10.2209 0.442026Z" fill="#9547A5"/>
</svg>
