<svg width="12" height="12" viewBox="0 0 12 12" fill="none" xmlns="http://www.w3.org/2000/svg">
<path d="M4.95145 0.21408C5.14981 0.0741062 5.3868 -0.000762939 5.62962 -0.00015831C5.87244 0.00044632 6.10906 0.0764952 6.30672 0.217455C6.50708 0.363695 6.65904 0.566181 6.74234 0.800166L7.2455 2.34469C7.37462 2.73182 7.59203 3.08365 7.88056 3.3724C8.1691 3.66114 8.52086 3.87889 8.90806 4.00845L10.4738 4.51467C10.7053 4.59843 10.9047 4.75267 11.0438 4.95565C11.183 5.15864 11.2549 5.40013 11.2494 5.64612C11.2439 5.8921 11.1613 6.13017 11.0133 6.32678C10.8653 6.52338 10.6593 6.66862 10.4243 6.74202L8.87654 7.24599C8.48896 7.37487 8.13668 7.59208 7.84755 7.88044C7.55842 8.16881 7.34036 8.52042 7.2106 8.9075L6.70182 10.4689C6.61989 10.6989 6.46826 10.8977 6.26802 11.0376C6.06777 11.1775 5.82888 11.2516 5.58456 11.2495C5.34025 11.2474 5.10267 11.1692 4.90487 11.0259C4.70707 10.8826 4.55888 10.6812 4.48094 10.4498L3.96652 8.87488C3.83738 8.49818 3.62442 8.15567 3.34365 7.87313C3.06288 7.59059 2.72164 7.37539 2.3456 7.24374L0.78097 6.7409C0.550885 6.65885 0.352071 6.50724 0.212128 6.30713C0.0721856 6.10702 -0.00194137 5.86833 3.86575e-05 5.6242C0.00201868 5.38006 0.0800074 5.14261 0.223177 4.94479C0.366347 4.74697 0.567595 4.5986 0.79898 4.52029L2.3456 4.0197C2.73516 3.89051 3.08893 3.67175 3.37847 3.38103C3.66801 3.0903 3.88524 2.73572 4.01267 2.34581L4.52146 0.781042C4.6025 0.551558 4.75334 0.353571 4.95145 0.21408Z" fill="#9547A5"/>
</svg>
