<svg width="14" height="14" viewBox="0 0 14 14" fill="none" xmlns="http://www.w3.org/2000/svg">
<path d="M5.74623 0.24864C5.97642 0.0861988 6.25147 -0.000688553 6.53326 1.33514e-05C6.81506 0.000715256 7.08966 0.0889711 7.31904 0.252557C7.55156 0.422271 7.72792 0.657259 7.82458 0.928802L8.40851 2.72124C8.55835 3.17052 8.81066 3.57882 9.14551 3.91391C9.48036 4.24901 9.88858 4.50171 10.3379 4.65207L12.155 5.23954C12.4237 5.33674 12.655 5.51574 12.8165 5.7513C12.978 5.98687 13.0614 6.26713 13.0551 6.5526C13.0487 6.83807 12.9529 7.11435 12.7811 7.34251C12.6093 7.57068 12.3703 7.73923 12.0975 7.82441L10.3014 8.40927C9.85156 8.55885 9.44274 8.81092 9.1072 9.14557C8.77165 9.48022 8.51859 9.88827 8.36801 10.3375L7.77756 12.1495C7.68248 12.4165 7.50651 12.6472 7.27412 12.8095C7.04174 12.9719 6.7645 13.0578 6.48097 13.0554C6.19744 13.0529 5.92172 12.9622 5.69217 12.7959C5.46262 12.6296 5.29065 12.3959 5.20019 12.1273L4.6032 10.2996C4.45334 9.86246 4.20619 9.46497 3.88036 9.13708C3.55452 8.80919 3.1585 8.55945 2.72211 8.40666L0.906327 7.8231C0.63931 7.72789 0.408583 7.55195 0.246178 7.31971C0.0837725 7.08748 -0.00225299 6.81048 4.48626e-05 6.52716C0.00234271 6.24384 0.0928497 5.96827 0.259001 5.73869C0.425151 5.50912 0.658702 5.33694 0.927228 5.24606L2.72211 4.66512C3.17419 4.51519 3.58475 4.26132 3.92077 3.92393C4.25678 3.58654 4.50888 3.17505 4.65676 2.72255L5.24722 0.906608C5.34127 0.640287 5.51632 0.410521 5.74623 0.24864Z" fill="#9547A5"/>
</svg>
