<svg width="24" height="24" viewBox="0 0 24 24" fill="none" xmlns="http://www.w3.org/2000/svg">
<path d="M8.51996 13.8461C7.47996 13.8461 6.63196 12.9011 6.63196 11.7451C6.63196 10.5891 7.45896 9.64306 8.52096 9.64306C9.57096 9.64306 10.431 10.5881 10.41 11.7451C10.41 12.9011 9.57096 13.8461 8.51996 13.8461ZM15.494 13.8451C14.454 13.8451 13.604 12.9001 13.604 11.7441C13.604 10.5881 14.433 9.64206 15.494 9.64206C16.544 9.64206 17.404 10.5871 17.384 11.7441C17.384 12.9001 16.555 13.8451 15.494 13.8451ZM10.125 4.32106L9.81696 3.75806L9.18296 3.86406C7.74627 4.10418 6.34797 4.53463 5.02496 5.14406L4.79696 5.24906L4.65496 5.45906C2.04196 9.31206 1.32496 13.1071 1.67996 16.8341L1.71896 17.2411L2.04896 17.4811C3.58606 18.6091 5.30297 19.4689 7.12696 20.0241L7.91696 20.2661L9.02996 17.5501C10.94 18.0221 13.06 18.0221 14.969 17.5501L16.076 20.2671L16.866 20.0251C18.6915 19.4713 20.4094 18.6107 21.946 17.4801L22.273 17.2421L22.313 16.8401C22.749 12.5201 21.616 8.75706 19.355 5.45606L19.213 5.24806L18.985 5.14406C17.6624 4.53716 16.2657 4.10681 14.831 3.86406L14.213 3.76106L13.899 4.30306C13.811 4.45306 13.722 4.62306 13.636 4.79606C12.5511 4.68486 11.4578 4.68486 10.373 4.79606C10.288 4.62606 10.203 4.46206 10.125 4.32106ZM6.71496 16.6101C6.91196 16.7241 7.11996 16.8361 7.32496 16.9381L6.87596 18.0341C5.66146 17.5916 4.50925 16.9939 3.44796 16.2561C3.22296 13.1181 3.86096 9.95106 6.01196 6.68606C6.91984 6.28659 7.86606 5.98067 8.83596 5.77306C8.89596 5.89806 8.95196 6.02106 8.99796 6.12906L9.27096 6.77206L9.96296 6.67106C11.319 6.47227 12.6969 6.47227 14.053 6.67106L14.743 6.77106L15.015 6.12906C15.062 6.01706 15.117 5.89506 15.175 5.77306C16.152 5.98306 17.098 6.29306 18.003 6.68806C19.878 9.50806 20.824 12.6541 20.549 16.2551C19.4871 16.9935 18.3342 17.5914 17.119 18.0341L16.674 16.9391C16.88 16.8371 17.088 16.7251 17.287 16.6101C17.777 16.3281 18.304 15.9761 18.64 15.6401L17.36 14.3601C17.197 14.5241 16.837 14.7801 16.383 15.0421C15.939 15.2981 15.498 15.5051 15.216 15.5981C13.213 16.2611 10.788 16.2611 8.78396 15.5981C8.50296 15.5051 8.06196 15.2981 7.61796 15.0421C7.16396 14.7811 6.80396 14.5241 6.63996 14.3601L5.35996 15.6401C5.69696 15.9761 6.22496 16.3281 6.71496 16.6101Z" fill="#358BB9"/>
</svg>
